<?xml version="1.0" encoding="UTF-8"?>
<svg version="1.1" viewBox="4 4 18.458 18.458" xmlns="http://www.w3.org/2000/svg"><rect x="-.26458" y="-.26458" width="26.987" height="26.988" fill="#111"/><path d="m9.1299 16.953c-0.56409 0-1.0845-0.09401-1.5613-0.28204-0.47007-0.18803-0.88307-0.44993-1.239-0.78569-0.3492-0.33577-0.62117-0.73197-0.81591-1.1886s-0.29212-0.95022-0.29212-1.4807c0-0.53723 0.094015-1.0308 0.28204-1.4807 0.19474-0.44993 0.46672-0.84277 0.81591-1.1785s0.75883-0.59431 1.2289-0.77562c0.47679-0.18803 0.99723-0.28204 1.5613-0.28204 0.56409 0 1.0812 0.094015 1.5512 0.28204 0.47679 0.18131 0.88978 0.43985 1.239 0.77562s0.61781 0.73197 0.80584 1.1886c0.19474 0.44993 0.29212 0.9435 0.29212 1.4807 0 0.53051-0.09737 1.0241-0.29212 1.4807-0.18803 0.44993-0.45664 0.84613-0.80584 1.1886-0.3492 0.33577-0.75883 0.59766-1.2289 0.78569-0.47007 0.18131-0.9838 0.27197-1.5412 0.27197zm3.1126 0.51372-3.4752-3.4752 1.0879-1.0879 3.4752 3.4752zm-3.1327-2.2866c0.37606 0 0.70175-0.08058 0.97708-0.24175 0.27533-0.16117 0.48686-0.38949 0.6346-0.68496s0.22161-0.64131 0.22161-1.0375c0-0.29548-0.04365-0.56073-0.13095-0.79577-0.08058-0.24175-0.20146-0.44657-0.36263-0.61445-0.16117-0.1746-0.35591-0.30555-0.58423-0.39285-0.22161-0.09402-0.47343-0.14102-0.75548-0.14102-0.37606 0-0.70175 0.08058-0.97708 0.24175-0.27533 0.15445-0.48686 0.37942-0.6346 0.67489-0.14774 0.28876-0.22161 0.63124-0.22161 1.0274 0 0.30219 0.040292 0.57416 0.12088 0.81591 0.087299 0.24175 0.21153 0.44993 0.3727 0.62453 0.16117 0.16788 0.35256 0.29883 0.57416 0.39285 0.22832 0.0873 0.4835 0.13095 0.76555 0.13095zm8.2498 1.7527c-0.55737 0-1.0745-0.09066-1.5512-0.27197-0.47007-0.18803-0.88307-0.44993-1.239-0.78569-0.3492-0.33577-0.62117-0.72861-0.81591-1.1785s-0.29212-0.94015-0.29212-1.4707c0-0.53723 0.10073-1.0308 0.30219-1.4807 0.20818-0.44993 0.49358-0.83942 0.8562-1.1685 0.36934-0.33577 0.79577-0.59431 1.2793-0.77562 0.4835-0.18803 1.0006-0.28204 1.5512-0.28204 0.66482 0 1.2591 0.11416 1.7829 0.34248 0.53051 0.22832 0.96029 0.53723 1.2893 0.92672l-1.3599 1.3599c-0.24847-0.28876-0.50701-0.50365-0.77562-0.64467s-0.59095-0.21153-0.96701-0.21153c-0.35591 0-0.67825 0.08058-0.96701 0.24175-0.28876 0.15445-0.52044 0.37606-0.69504 0.66482-0.16788 0.28876-0.25182 0.62788-0.25182 1.0174s0.07723 0.73197 0.23168 1.0274c0.16117 0.28876 0.38277 0.51372 0.66482 0.67489s0.6111 0.24175 0.98715 0.24175c0.36263 0 0.66818-0.07051 0.91664-0.21153 0.24847-0.14102 0.45968-0.3549 0.61001-0.70155l-1.7986-0.05392v-1.6117h3.9788v0.30219c0 0.85956-0.15781 1.5915-0.47343 2.1959-0.3089 0.60438-0.7454 1.0644-1.3095 1.38-0.55737 0.31562-1.2088 0.47343-1.9542 0.47343z" fill="#eee"/></svg>
