<?xml version="1.0" encoding="UTF-8"?>
<svg width="100" height="100" version="1.1" viewBox="0 0 26.458 26.458" xmlns="http://www.w3.org/2000/svg"><rect x="-.26458" y="-.26458" width="26.987" height="26.988" fill="#131319"/><path d="m9.1299 16.953q-0.84613 0-1.5613-0.28204-0.70511-0.28204-1.239-0.78569-0.5238-0.50365-0.81591-1.1886t-0.29212-1.4807q0-0.80584 0.28204-1.4807 0.29212-0.67489 0.81591-1.1785t1.2289-0.77562q0.71518-0.28204 1.5613-0.28204 0.84613 0 1.5512 0.28204 0.71518 0.27197 1.239 0.77562t0.80584 1.1886q0.29212 0.67489 0.29212 1.4807 0 0.79577-0.29212 1.4807-0.28204 0.67489-0.80584 1.1886-0.5238 0.50365-1.2289 0.78569-0.70511 0.27197-1.5412 0.27197zm3.1126 0.51372-3.4752-3.4752 1.0879-1.0879 3.4752 3.4752zm-3.1327-2.2866q0.56409 0 0.97708-0.24175 0.41299-0.24175 0.6346-0.68496t0.22161-1.0375q0-0.44321-0.13095-0.79577-0.12088-0.36263-0.36263-0.61445-0.24175-0.2619-0.58423-0.39285-0.33241-0.14102-0.75548-0.14102-0.56409 0-0.97708 0.24175-0.41299 0.23168-0.6346 0.67489-0.22161 0.43314-0.22161 1.0274 0 0.45328 0.12088 0.81591 0.13095 0.36263 0.3727 0.62453 0.24175 0.25182 0.57416 0.39285 0.34248 0.13095 0.76555 0.13095zm8.2498 1.7527q-0.83606 0-1.5512-0.27197-0.70511-0.28204-1.239-0.78569-0.5238-0.50365-0.81591-1.1785t-0.29212-1.4707q0-0.80584 0.30219-1.4807 0.31226-0.67489 0.8562-1.1685 0.55402-0.50365 1.2793-0.77562 0.72526-0.28204 1.5512-0.28204 0.99723 0 1.7829 0.34248 0.79577 0.34248 1.2893 0.92672l-1.3599 1.3599q-0.3727-0.43314-0.77562-0.64467t-0.96701-0.21153q-0.53387 0-0.96701 0.24175-0.43314 0.23168-0.69504 0.66482-0.25182 0.43314-0.25182 1.0174t0.23168 1.0274q0.24175 0.43314 0.66482 0.67489t0.98715 0.24175q0.54394 0 0.91664-0.21153t0.56409-0.60438q0.20146-0.39285 0.20146-0.92672l1.38 0.87635-3.3342-0.10073v-1.6117h3.9788v0.30219q0 1.2893-0.47343 2.1959-0.46336 0.90657-1.3095 1.38-0.83606 0.47343-1.9542 0.47343z" fill="#e8e8e8"/></svg>
