<svg
  width="100"
  height="100"
  viewBox="0 -0.634765625 101.26953125 101.26953125"
  xmlns="http://www.w3.org/2000/svg"
>

  <!--
  //
  // The authors of this file have waived all copyright and
  // related or neighboring rights to the extent permitted by
  // law as described by the CC0 1.0 Universal Public Domain
  // Dedication. You should have received a copy of the full
  // dedication along with this file, typically as a file
  // named <CC0-1.0.txt>. If not, it may be available at
  // <https://creativecommons.org/publicdomain/zero/1.0/>.
  //
  -->

  <style>
    path {
      fill: white;
      stroke: white;
      stroke-width: 2;
    }
  </style>

  <g>
    <rect
      x="0"
      y="-0.634765625"
      width="101.26953125"
      height="101.26953125"
    />
  </g>

  <g>
    <path d="m 32.983984,31.4425 c -3.009632,0 -5.688544,0.727606 -8.036719,2.182813 -2.331638,1.43867 -4.142384,3.514 -5.432226,6.225976 -1.273306,2.69544 -1.909961,5.820837 -1.909961,9.376172 v 1.785938 c 0.01654,3.472652 0.669728,6.54844 1.95957,9.227343 1.289843,2.662367 3.108857,4.712892 5.457032,6.151563 2.348174,1.43867 5.018818,2.158008 8.011914,2.158008 0.942577,0 1.852084,-0.07442 2.728515,-0.223243 l 7.689453,6.176368 4.737696,-4.191993 -6.002735,-4.71289 c 1.934764,-1.504816 3.447853,-3.497464 4.539258,-5.97793 1.091405,-2.497003 1.637109,-5.43223 1.637109,-8.805664 v -1.612305 c 0,-3.538798 -0.644923,-6.655927 -1.934765,-9.351367 C 45.154819,37.139313 43.344073,35.063983 40.995898,33.625313 38.66426,32.170106 35.993617,31.4425 32.983984,31.4425 Z m 35.073828,0 c -3.075778,0 -5.762958,0.702801 -8.061523,2.108399 -2.282029,1.389061 -4.034897,3.406513 -5.258594,6.052343 -1.20716,2.629294 -1.810742,5.746423 -1.810742,9.351367 v 2.455665 c 0.03307,3.505725 0.686264,6.556708 1.95957,9.152929 1.289843,2.596222 3.108857,4.580601 5.457032,5.953125 2.364711,1.355988 5.109768,2.033985 8.235156,2.033985 2.976559,0 5.688544,-0.438217 8.135937,-1.314649 2.447394,-0.892968 4.340822,-2.141473 5.680274,-3.745508 V 49.078633 H 68.181836 v 5.481836 h 6.771679 v 6.225976 c -1.190623,1.190624 -3.183271,1.785938 -5.977929,1.785938 -2.778122,0 -4.886525,-0.967385 -6.325196,-2.902149 -1.43867,-1.934763 -2.158007,-4.795576 -2.158007,-8.582421 v -2.306836 c 0.01654,-3.753773 0.686264,-6.581513 2.009179,-8.483203 1.322916,-1.901691 3.249417,-2.85254 5.779493,-2.85254 1.984373,0 3.538803,0.479559 4.663281,1.438672 1.141014,0.959114 1.876888,2.472203 2.207617,4.539258 h 7.242969 c -0.446484,-3.9026 -1.876891,-6.8709 -4.291211,-8.904883 C 75.68939,32.467763 72.340751,31.4425 68.057812,31.4425 Z m -35.073828,6.151563 c 2.513539,0 4.448309,0.983921 5.804297,2.951757 1.355988,1.967837 2.033984,4.845187 2.033984,8.632032 v 1.761132 c -0.01654,3.753773 -0.694532,6.614586 -2.033984,8.582422 -1.339452,1.9513 -3.257685,2.926953 -5.754687,2.926953 -2.546612,0 -4.497918,-1.016994 -5.853907,-3.050976 -1.355988,-2.033982 -2.033984,-4.894796 -2.033984,-8.582422 v -1.761133 c 0.01654,-3.753772 0.702801,-6.598049 2.058789,-8.532812 1.355988,-1.9513 3.28249,-2.926953 5.779492,-2.926953 z" />
  </g>

</svg>
